<svg xmlns="http://www.w3.org/2000/svg" width="24" height="24" fill="none">
    <g clip-path="url(#a)">
        <path fill="#FFCC80" d="M21.498 2.508C19.235.252 15.979 0 12 0 8.016 0 4.756.255 2.493 2.517.23 4.777 0 8.033 0 12.012c0 3.98.23 7.236 2.493 9.497C4.757 23.771 8.017 24 12 24c3.983 0 7.243-.229 9.506-2.49C23.77 19.246 24 15.99 24 12.011c0-3.984-.233-7.243-2.502-9.504Z"/>
        <path fill="#4e342e" d="M9.666 7.334v2.389a1.5 1.5 0 0 0 1.5 1.5h1.668c.52 0 .977-.266 1.246-.668h.447A1.48 1.48 0 0 0 16 9.084a1.48 1.48 0 0 0-1.473-1.473h-.193v-.277Zm4.668 1.277h.193c.267 0 .473.206.473.473s-.206.47-.473.47h-.193zm-4.668 3.805a.75.75 0 0 0-.75.75.75.75 0 0 0 .75.75h4.668a.75.75 0 0 0 .75-.75.75.75 0 0 0-.75-.75zM7.334 4.25a2.317 2.317 0 0 0-2.307 2.305v10.89a2.317 2.317 0 0 0 2.307 2.305h10.889a.75.75 0 0 0 .75-.75.75.75 0 0 0-.75-.75H7.334a.795.795 0 0 1-.807-.805c0-.453.353-.806.807-.806h10.87l.019.002a.753.753 0 0 0 .693-.465.75.75 0 0 0 .057-.285.75.75 0 0 0 0-.002V5.467c0-.663-.554-1.217-1.217-1.217Zm0 1.5h10.139v9.389H7.334c-.284 0-.555.055-.807.15V6.555c0-.454.353-.805.807-.805Z" color="#000" style="-inkscape-stroke:none"/>
    </g>
    <defs>
        <clipPath id="a">
            <rect width="24" height="24" fill="#fff" rx="4"/>
        </clipPath>
    </defs>
</svg>