<svg xmlns="http://www.w3.org/2000/svg" xml:space="preserve" width="80" height="24" fill="none">
  <path fill="#ffa726" d="M33.999 17.14c-.653 0-1.237-.14-1.75-.42-.504-.29-.9-.686-1.19-1.19-.28-.513-.42-1.097-.42-1.75 0-.215.07-.387.21-.518.14-.14.313-.21.518-.21.215 0 .387.07.518.21.14.13.21.303.21.518 0 .401.08.756.238 1.064.168.308.392.55.672.728.29.168.62.252.994.252.373 0 .704-.084.994-.252.29-.177.513-.42.672-.728.168-.308.252-.663.252-1.064V6.794a.7.7 0 0 1 .196-.518c.14-.14.312-.21.518-.21a.72.72 0 0 1 .532.21c.14.13.21.303.21.518v6.986c0 .653-.145 1.237-.434 1.75-.29.504-.686.9-1.19 1.19-.504.28-1.088.42-1.75.42z"/>
  <path fill="#4e342e" d="M43.505 17.056c-.747 0-1.415-.168-2.003-.504a3.829 3.829 0 0 1-1.372-1.386c-.326-.588-.49-1.25-.49-1.988 0-.756.164-1.428.49-2.016a3.518 3.518 0 0 1 1.344-1.372c.57-.336 1.223-.504 1.96-.504.551 0 1.055.107 1.513.322.457.205.867.518 1.231.938.131.15.178.303.14.462-.037.159-.14.299-.307.42a.553.553 0 0 1-.435.098.902.902 0 0 1-.433-.252 2.253 2.253 0 0 0-1.708-.728c-.476 0-.896.112-1.26.336a2.234 2.234 0 0 0-.854.91c-.206.392-.308.854-.308 1.386 0 .504.102.952.308 1.344.214.392.508.705.882.938.373.224.807.336 1.302.336.326 0 .61-.037.854-.112.252-.084.48-.21.686-.378a.804.804 0 0 1 .462-.196.529.529 0 0 1 .42.126c.158.13.247.28.266.448a.51.51 0 0 1-.168.434c-.672.625-1.512.938-2.52.938zm8.408 0c-.756 0-1.424-.163-2.002-.49a3.72 3.72 0 0 1-1.372-1.372c-.327-.588-.49-1.26-.49-2.016 0-.765.163-1.437.49-2.016A3.588 3.588 0 0 1 49.91 9.79c.578-.336 1.246-.504 2.002-.504.746 0 1.409.168 1.988.504a3.491 3.491 0 0 1 1.358 1.372c.336.579.504 1.25.504 2.016 0 .756-.164 1.428-.49 2.016a3.617 3.617 0 0 1-1.358 1.372c-.579.327-1.246.49-2.002.49zm0-1.26c.485 0 .914-.112 1.288-.336.373-.224.662-.532.868-.924.214-.392.322-.845.322-1.358 0-.513-.108-.966-.322-1.358a2.28 2.28 0 0 0-.868-.938 2.455 2.455 0 0 0-1.288-.336c-.486 0-.915.112-1.288.336a2.374 2.374 0 0 0-.882.938c-.215.392-.322.845-.322 1.358 0 .513.107.966.322 1.358.214.392.508.7.882.924.373.224.802.336 1.288.336zm16.027 1.218a.73.73 0 0 1-.518-.196.73.73 0 0 1-.196-.518v-4.004c0-.588-.145-1.022-.434-1.302-.29-.29-.667-.434-1.134-.434-.485 0-.887.168-1.204.504-.308.336-.462.765-.462 1.288H62.83c0-.607.13-1.139.392-1.596a2.79 2.79 0 0 1 1.092-1.092c.476-.261 1.017-.392 1.624-.392.532 0 1.003.117 1.414.35.41.233.728.579.952 1.036.233.448.35.994.35 1.638V16.3a.73.73 0 0 1-.196.518.7.7 0 0 1-.518.196zm-9.338 0a.73.73 0 0 1-.518-.196.73.73 0 0 1-.196-.518v-6.23a.7.7 0 0 1 .196-.518.73.73 0 0 1 .518-.196.7.7 0 0 1 .518.196.7.7 0 0 1 .196.518v6.23a.73.73 0 0 1-.196.518.7.7 0 0 1-.518.196zm4.676 0a.73.73 0 0 1-.518-.196.73.73 0 0 1-.196-.518v-4.004c0-.588-.145-1.022-.434-1.302-.29-.29-.667-.434-1.134-.434-.485 0-.887.168-1.204.504-.317.336-.476.765-.476 1.288h-.882c0-.607.121-1.139.364-1.596.243-.467.579-.83 1.008-1.092a2.77 2.77 0 0 1 1.47-.392c.532 0 1.003.117 1.414.35.41.233.728.579.952 1.036.233.448.35.994.35 1.638V16.3a.73.73 0 0 1-.196.518.7.7 0 0 1-.518.196zM71.88 17a.73.73 0 0 1-.518-.196.73.73 0 0 1-.196-.518v-6.23a.7.7 0 0 1 .196-.518.73.73 0 0 1 .518-.196.7.7 0 0 1 .518.196.7.7 0 0 1 .196.518v6.23a.73.73 0 0 1-.196.518.7.7 0 0 1-.518.196Zm0-8.904a.924.924 0 0 1-.658-.266.924.924 0 0 1-.266-.658c0-.252.088-.467.266-.644a.9.9 0 0 1 .658-.28c.252 0 .466.093.644.28.186.177.28.392.28.644a.9.9 0 0 1-.28.658.877.877 0 0 1-.644.266z"/>
  <defs>
    <clipPath id="a">
      <rect width="24" height="24" fill="#fff" rx="4"/>
    </clipPath>
  </defs>
  <g clip-path="url(#a)">
    <path fill="#ffcc80" d="M21.498 2.508C19.235.252 15.979 0 12 0 8.016 0 4.756.255 2.493 2.517.23 4.777 0 8.033 0 12.012c0 3.98.23 7.236 2.493 9.497C4.757 23.771 8.017 24 12 24c3.983 0 7.243-.229 9.506-2.49C23.77 19.246 24 15.99 24 12.011c0-3.984-.233-7.243-2.502-9.504Z"/>
    <path fill="#4e342e" d="M9.666 7.334v2.389a1.5 1.5 0 0 0 1.5 1.5h1.668c.52 0 .977-.266 1.246-.668h.447A1.48 1.48 0 0 0 16 9.084a1.48 1.48 0 0 0-1.473-1.473h-.193v-.277Zm4.668 1.277h.193c.267 0 .473.206.473.473s-.206.47-.473.47h-.193zm-4.668 3.805a.75.75 0 0 0-.75.75.75.75 0 0 0 .75.75h4.668a.75.75 0 0 0 .75-.75.75.75 0 0 0-.75-.75zM7.334 4.25a2.317 2.317 0 0 0-2.307 2.305v10.89a2.317 2.317 0 0 0 2.307 2.305h10.889a.75.75 0 0 0 .75-.75.75.75 0 0 0-.75-.75H7.334a.795.795 0 0 1-.807-.805c0-.453.353-.806.807-.806h10.87l.019.002a.753.753 0 0 0 .693-.465.75.75 0 0 0 .057-.285.75.75 0 0 0 0-.002V5.467c0-.663-.554-1.217-1.217-1.217zm0 1.5h10.139v9.389H7.334c-.284 0-.555.055-.807.15V6.555c0-.454.353-.805.807-.805Z" color="#000" style="-inkscape-stroke:none"/>
  </g>
</svg>
