<?xml version="1.0" encoding="UTF-8" standalone="no"?>
<svg
   xmlns:dc="http://purl.org/dc/elements/1.1/"
   xmlns:cc="http://creativecommons.org/ns#"
   xmlns:rdf="http://www.w3.org/1999/02/22-rdf-syntax-ns#"
   xmlns:svg="http://www.w3.org/2000/svg"
   xmlns="http://www.w3.org/2000/svg"
   xmlns:sodipodi="http://sodipodi.sourceforge.net/DTD/sodipodi-0.dtd"
   xmlns:inkscape="http://www.inkscape.org/namespaces/inkscape"
   width="96"
   height="96"
   viewBox="0 0 72 72"
   version="1.1"
   id="svg10"
   sodipodi:docname="caution.svg"
   inkscape:version="0.92.4 (5da689c313, 2019-01-14)">
  <metadata
     id="metadata16">
    <rdf:RDF>
      <cc:Work
         rdf:about="">
        <dc:format>image/svg+xml</dc:format>
        <dc:type
           rdf:resource="http://purl.org/dc/dcmitype/StillImage" />
        <dc:title></dc:title>
      </cc:Work>
    </rdf:RDF>
  </metadata>
  <defs
     id="defs14" />
  <sodipodi:namedview
     pagecolor="#ffffff"
     bordercolor="#666666"
     borderopacity="1"
     objecttolerance="10"
     gridtolerance="10"
     guidetolerance="10"
     inkscape:pageopacity="0"
     inkscape:pageshadow="2"
     inkscape:window-width="1600"
     inkscape:window-height="837"
     id="namedview12"
     showgrid="false"
     inkscape:pagecheckerboard="true"
     inkscape:zoom="1.84375"
     inkscape:cx="34.497175"
     inkscape:cy="45.559322"
     inkscape:window-x="-8"
     inkscape:window-y="-8"
     inkscape:window-maximized="1"
     inkscape:current-layer="svg10"
     units="px" />
  <g
     id="#dfdfdfff"
     transform="matrix(0.75059921,0,0,0.75059921,-2.5946965,-0.07587807)"
     style="stroke-width:1.33226895">
    <path
       d="m 44.83,28.91 c 4.7,-0.34 9.42,-0.36 14.12,0.03 -0.69,11.67 -1.73,23.33 -2.93,34.96 -2.86,0.22 -5.73,0.21 -8.57,-0.11 C 46.64,52.16 45.22,40.56 44.83,28.91 Z"
       id="path2"
       inkscape:connector-curvature="0"
       style="opacity:1;fill:#dfdfdf;stroke-width:1.33226895" />
    <path
       d="m 49.37,68.29 c 3.91,-1.79 8.8,1.37 8.55,5.71 0.32,4.85 -6.13,7.92 -9.79,4.86 -3.65,-2.52 -2.92,-8.97 1.24,-10.57 z"
       id="path4"
       inkscape:connector-curvature="0"
       style="opacity:1;fill:#dfdfdf;stroke-width:1.33226895" />
  </g>
  <g
     id="#898686ff"
     transform="matrix(0.75059921,0,0,0.75059921,-2.5946965,-0.07587807)"
     style="stroke-width:1.33226895">
    <path
       d="m 50.37,5.43 c 3.5,-0.53 6.89,1.5 9.05,4.12 2.46,3.02 4.23,6.51 6.2,9.85 10.27,17.73 20.59,35.44 30.92,53.14 2.09,3.6 3.77,8 2.26,12.14 -1.68,4.2 -6.47,6.11 -10.73,6.06 C 64.36,90.76 40.66,90.67 16.95,90.78 13.23,90.79 9.17,90.35 6.25,87.8 3.26,85.27 2.87,80.8 4.14,77.3 5.67,73.06 8.28,69.34 10.5,65.45 20.29,48.61 30.21,31.85 39.94,14.98 42.27,10.85 45.24,6.15 50.37,5.43 m -5.54,23.48 c 0.39,11.65 1.81,23.25 2.62,34.88 2.84,0.32 5.71,0.33 8.57,0.11 1.2,-11.63 2.24,-23.29 2.93,-34.96 -4.7,-0.39 -9.42,-0.37 -14.12,-0.03 m 4.54,39.38 c -4.16,1.6 -4.89,8.05 -1.24,10.57 3.66,3.06 10.11,-0.01 9.79,-4.86 0.25,-4.34 -4.64,-7.5 -8.55,-5.71 z"
       id="path7"
       inkscape:connector-curvature="0"
       style="opacity:1;fill:#898686;stroke-width:1.33226895" />
  </g>
</svg>
